<?xml version="1.0" encoding="utf-8"?>
<!-- Generator: Adobe Illustrator 16.0.0, SVG Export Plug-In . SVG Version: 6.00 Build 0)  -->
<!DOCTYPE svg PUBLIC "-//W3C//DTD SVG 1.1//EN" "http://www.w3.org/Graphics/SVG/1.1/DTD/svg11.dtd">
<svg version="1.1" id="Layer_1" xmlns="http://www.w3.org/2000/svg" xmlns:xlink="http://www.w3.org/1999/xlink" x="0px" y="0px"
	 width="236px" height="62px" viewBox="0 0 236 62" enable-background="new 0 0 236 62" xml:space="preserve">
<path fill="#FFFFFF" d="M52.938,25.206c0.236-0.047,0.609,0.094,0.422,0.188c-0.891,0.422-2.858,1.452-3.515,1.452
	c-1.078,0-1.874,0.281-2.858,0.61c-2.953,1.031-7.639,2.812-11.013,4.17c-0.609,0.233-1.594,1.171-2.156,1.219
	c-0.562,0.095-1.733,0.188-2.342,0.188c-0.376,0-0.657-0.235-0.796-0.516h-1.078c-0.704-0.704-1.5-2.155-2.109-2.155h-0.562
	c0.797-8.249,9.231-20.902,13.496-26.384V3.227c2.624,0,3.985,2.109,3.985,4.359c0,0.562-2.392,5.905-3.235,7.452
	c-0.561,0.983-2.062,2.389-2.858,3.514c-0.421,0.609-0.703,1.828-1.078,2.484c-0.516,0.937-2.109,1.733-1.546,3.093
	c3.187-0.984,3.796-1.078,4.171-1.172c0.515-0.141,1.124-0.282,1.733-0.282c0.75,0,3.936-0.093,4.17-0.093
	c0.657,0,0.704,0.234,1.359,0.234c0.609,0,3.046-0.796,4.64-1.266c0.046,0.093,0.233,0.188,0.562,0.234v0.047
	c-1.453,0.468,0.282,0.14,1.922-0.234c0.561,0.187,1.217,0.609,1.265,0.703c0.702-0.28,1.921-0.936,1.968-0.609
	C57.625,22.347,49.753,26.471,52.938,25.206z M35.179,21.175c-0.328,0.844-0.891,1.641-0.281,1.921l0.844-1.78L35.179,21.175z
	 M37.897,17.567c-0.47,0-0.657,0.562-0.657,0.844h0.657V17.567z M43.895,24.316l1.03-0.563c-0.234-0.14-0.749-0.187-1.311,0.188
	L43.895,24.316z M52.893,21.55c-0.141,0.047-0.516-0.187-0.375-0.234l0.938-0.281c0.516-0.141,0.468,0.14,0.234,0.234L52.893,21.55z
	 M54.112,25.065c-0.329,0.141-0.517,0.047-0.657-0.14v-0.047c2.764-1.218,3.092-1.406,3.468-1.125L54.112,25.065z"/>
<path fill="#FFFFFF" d="M66.25,20.097c0.655-0.233,0.187,0.329,0.094,0.471c-1.64,2.764-2.437,5.95-3.795,9.231
	c-0.938,2.203-1.267,4.218-1.031,5.154c-0.844-0.28-1.594-0.608-2.343-1.03c0,0-0.469-0.89-0.518-0.375
	c-1.076-0.796-1.967-1.875-2.576-3.515c0-8.435,8.717-19.963,12.09-26.148c0.282-0.375,0.891-0.657,1.407-0.657
	c0.468,0,0.936,0.188,1.452,0.329V4.68c0.938,0.375,1.687,1.452,1.687,2.483c0,1.265-0.188,2.953-0.421,4.358h-0.517
	c-1.265,1.78-2.014,5.061-4.17,6.232l-0.771,1.842L66.25,20.097z M61.331,30.219l-0.517,1.265c-0.046,0.142,0.094,0.609,0.375,0.142
	l0.657-1.641C61.188,29.33,61.377,30.079,61.331,30.219z"/>
<path fill="#FFFFFF" d="M97.967,6.461c0.515-0.329,1.453-0.562,2.435-0.609c1.689-0.047,3,0.188,3.798,0.75l-0.938,0.656
	l0.094,0.188c0.327,0,1.218-0.282,1.499-0.47l1.313,1.406c-2.438,1.125-6.794,4.358-9.185,7.639c-0.28,0.375-0.469-0.187-0.75,0
	c-0.093,1.688-1.078,2.578-2.203,4.359c-0.233,0.421-0.14,1.03-0.421,1.687c0,0.28-0.704,0.562-0.844,0.984
	c-1.171,3.608-2.764,7.357-4.264,11.2l-2.109-0.985l-0.281,0.657c-3-0.797-3.28-1.969-3.703-5.108
	c-0.141-1.219,0.234-3.327-0.094-4.358c-1.125-3.28-0.047-4.686-0.329-7.076l-0.232-1.829c-1.454,0.469-3.094,1.875-4.313,4.078
	l0.142,0.75c-2.344,4.405-4.451,10.497-6.562,13.308h-1.312c-1.359,0-2.108-3.139-2.671-3.42l-0.282-2.063
	c-0.233-1.453,0.187-1.967,0.516-2.858c3.328-8.06,8.67-12.934,12.372-16.729c1.406,0.514,5.25,2.905,5.905,4.639
	c0.562,1.406,1.125,4.357,1.593,6.279c3.188-5.53,7.873-12.419,8.904-12.793l0.984-0.142C94.124,9.459,95.202,9.131,97.967,6.461z
	 M79.409,9.742l-1.031,1.078c0.562,0.468,1.078-0.47,1.404-0.797L79.409,9.742z M101.856,8.242l0.094,0.421
	c0.468-0.328,0.891-0.375,0.797-1.078L101.856,8.242z"/>
<g>
	<g>
		<path fill="#FFFFFF" d="M13.19,15.48l4.257-0.517c-0.513,0.379-1.584,1.092-2.004,1.661l0.187,0.141
			c1.491-0.094,3.633-0.332,5.311-0.332c2.281,0,4.1,1.329,5.544,2.42c0.698,1.138,1.584,3.701,2.049,5.22
			c-0.327,0.189-0.606-0.047-0.93,0.096c-0.654,0.995-4.706,4.175-4.939,4.175c-1.024-0.046-3.074,1.52-3.074,1.52
			c-1.072,0.996-3.82,1.47-3.96,1.85c-4.985,2.753-8.62,3.654-8.106,4.696c-0.327,0.286-0.651,0.381-0.977,0.381
			c-1.026,0-3.635-4.129-3.868-4.792c0.792-0.38,0.233-3.987,0.046-4.414l4.752-12.954c-0.745-0.38-0.885-1.092-0.792-1.945
			l2.376-1.945c0.885-2.517,2.471-6.17,3.773-8.164h0.839c1.864,0,2.514,1.566,2.794,2.23h-0.65c0,0.57-1.183,2.562-0.856,2.562
			 M7.197,28.584l0.327,0.188l0.373-0.521C7.616,28.109,7.43,28.299,7.197,28.584z M10.692,20.895c-0.513,0-0.607,0.333-0.841,0.333
			l0.468,0.379c-0.234,0.427-1.444,6.786-1.444,6.786s-0.514,0.521-0.514,0.854c2.051-0.948,6.943-2.8,7.409-2.8
			c0.372,0,0.884,0.143,1.07-0.664c2.005-0.948,4.24-2.087,6.011-4.46c-4.147-1.613-5.917,0.238-9.737,0.238
			C12.182,21.561,11.252,20.895,10.692,20.895z M9.248,26.163c-0.14-0.095-0.188-0.189-0.093-0.38
			c0.047-0.379,0.558-0.948,0.838-1.186L9.248,26.163z M10.085,24.17c-0.234-0.096,0.187-1.423,0.512-2.041l0.281,0.237
			L10.085,24.17z M18.518,19.756l-0.047,0.379c0.466,0.096,0.932,0.048,0.979-0.237L18.518,19.756z M20.055,29.723
			c0-0.476,0.326-0.759,0.886-0.759c0.185,0,0.327,0.046,0.464,0.141L20.055,29.723z M25.925,25.023l0.885-0.759
			c-0.235-0.332-0.885,0.191-1.212,0.38L25.925,25.023z"/>
	</g>
	<g>
		<path fill="#FFFFFF" d="M17.793,5.803c0,0,2.677-0.449,3.654-0.688c1.332-0.326,2.124,0.068,3.143,0.58
			c0.59,0.648,1.521,2.207,2.034,3.14c-0.16,0.171-0.36,0.056-0.528,0.195c-0.22,0.748-2.072,3.417-2.207,3.45
			c-0.607,0.115-1.549,1.438-1.549,1.438c-0.465,0.808-1.411,1.303-1.897,0.959c-0.099,0.189-0.094,0.552-0.116,0.821
			c-2.464,2.521-4.819,2.076-4.354,2.689c-0.143,0.233-0.444-0.178-0.634-0.131c-0.599,0.146-0.782,1.401-1.602,1.468
			c-0.029-0.356-0.12-0.73-0.401-0.464c-0.024-0.457-0.273-1.123-0.517-1.527c0.401-0.363,0.856-0.738,1.25-1.133
			c-0.526-0.036-0.99-0.518-1.417-0.611l0.129-0.528c-0.332-0.184-0.467-0.382-0.646-0.636l0.982-7.465L17.793,5.803z
			 M14.974,15.114l0.22,0.083l0.13-0.409C15.139,14.729,15.062,14.886,14.974,15.114z M17.271,17.801
			c0.07,0.053,0.14,0.104,0.173,0.129c0.064,0.018,0.119,0.005,0.146-0.001c0.053-0.013,0.119-0.098,0.178-0.215L17.271,17.801z
			 M17.84,17.183c0.041,0.162,0.265,0.379,0.564,0.306c0.299-0.073,0.25-0.505,0.116-0.472
			C18.278,17.212,17.983,17.181,17.84,17.183z M22.078,14.026c-0.253,0.027-0.619,0.289-0.724,0.452
			c0.16,0.062,0.303,0.062,0.439,0.028C21.928,14.472,22.03,14.311,22.078,14.026z M25.303,10.021l0.389-0.642
			c-0.191-0.193-0.485,0.256-0.643,0.431L25.303,10.021z M14.754,9.479c-0.305,0.099-0.409,1.531-0.547,1.575
			c0,0,0.132,0.609-0.064,0.672c0.378,0.217,0.345,2.134,0.345,2.134l0.189,0.69l-0.196,0.062c-0.022,0.127-0.034,0.275,0.016,0.43
			c1.088-0.832,2.003-1.438,2.355-1.308c0.047-0.33,1.393-1.317,1.675-1.405c0.224-0.072,0.552-0.104,0.542-0.512
			c1.064-0.823,2.236-1.777,2.95-3.212c1.129-0.021-6.77,1.775-5.843,1.479C15.617,10.263,15.09,9.372,14.754,9.479z"/>
	</g>
</g>
<path fill="#FFFFFF" d="M154.621,29.776l0.762,0.189l1.14-0.141l0.523,0.331l-2.994,1.757c-0.427,0.19-2.758,1.438-5.89,2.436
	c-0.523,0.188-6.025,1.979-7.118,1.979c-0.521,0-0.949-0.761-1.424-0.761c-1.139,0-1.425-1.187-2.943-0.996
	c-0.855-0.807-2.658-3.846-3.039-4.557c-0.238-0.379-0.331-1.092-0.331-1.615v-1.281c0.759-0.665,0.807-1.662,0.807-2.659
	c0,0,0.426-0.902,0.664-1.424c0.996-1.995,2.897-5.175,3.515-5.175s2.773-2.89,2.752-3.086c0,0,10.636-8.355,12.296-8.355
	c0.57,0,1.711,0.523,2.422,0.902c0.663,1.567,1.995,2.801,1.663,4.749c-1.948,0.474-4.273,1.424-5.936,2.61
	c-1.378,0.997-2.421,2.137-2.991,2.659l-0.284-0.475c-0.522,0.854-2.327,2.278-3.657,3.465c-0.045,0.239-0.188,0.76-0.331,0.998
	c-0.854,0.901-5.556,6.313-5.556,8.64c0,0.57,0.239,0.902,0.761,0.902c1.708,0,5.648-1.139,8.498-1.565
	c0.664-0.095,1.188,0.189,1.424,0.475 M137.578,19.711l-0.665,1.091l0.43,0.333l0.616-0.998L137.578,19.711z M137.769,19.379
	l0.475,0.285l0.381-0.666C138.243,18.855,138.005,18.951,137.769,19.379z M145.602,35.329 M148.083,29.11
	c2.404-0.332,4.929-0.712,6.729-0.806c-0.3,0.806-2.342,1.091-4.146,1.091C149.586,29.395,148.564,29.301,148.083,29.11z
	 M154.672,31.674l-0.477-0.569l1.281-0.189l0.617,0.284L154.672,31.674z"/>
<g>
	<path fill="#FFFFFF" d="M124.596,19.995l-0.988-0.028l-0.108-0.003c-0.399-0.923-1.143-1.199-1.888-1.552l-1.171,1.406
		c-0.094-0.328,0.421-1.219,0.797-1.641c-0.233-0.14-0.468-0.281-0.654-0.468c-0.51,0.524-1.051,1.128-1.591,1.767
		c-0.264-0.079-0.519-0.148-0.761-0.206c-0.458-0.104-0.817,0.207-0.979,0.519l1.444,0.041c-0.014,0.017-0.028,0.033-0.041,0.05
		l-5.027-0.091l-0.523,0.208l-0.783-0.156l-0.358,0.362l0.971,0.909l-0.319,0.233l0.979,0.52l0.049-0.092l0.376,0.352
		c0.188,0.132,0.904,0.729,1.952,1.428c-0.386,0.572-0.975,1.212-1.528,1.467c-1.171,0.562-6.231,1.546-9.56,0.985
		c-0.797-6.655,10.403-15.043,15.558-15.043c1.031,0,2.016,0.749,2.437,1.171c0.187-0.046,0.376-0.281,0.423-0.515
		c-0.187-0.282-0.517-0.656-0.938-0.796c0.469-0.47,0.892-0.892,0.892-1.547c-2.016-1.219-1.405-3.234-4.405-4.03
		c-4.218,0-5.812,0.656-8.577,2.39c-0.562,0.375-0.281,0.842-0.796,1.078c-5.904,2.999-8.576,10.075-9.419,10.872l0.375,0.609
		c-0.704,2.062-1.219,4.077-0.328,6.419h0.561c1.735,3.374,3.798,4.171,7.781,4.125c1.124-0.891,2.716-1.407,3.374-0.61l0.844-0.281
		c0,2.577-0.517,1.406-1.265,3.046c-0.891,1.969-0.287,1.038-1.504,3.615l0.938,0.562c0.375,1.312,1.405,2.483,3.421,2.062v0.609
		h0.797c0.937,0,1.358-1.266,1.733-2.062c0.423-0.845-0.187-1.173,0.234-1.922c1.594-2.812,1.27-3.617,2.491-6.616l-0.518,0.234
		c-0.516,1.312-0.984,2.765-1.733,4.171l-0.189-0.328c0.704-1.687,1.266-3.326,1.689-4.592c0.472-0.409,1.157-0.928,2.566-2.247
		c0.687-0.643,1.543-1.474,2.634-2.58c-0.422-0.516,0.984-2.718-0.188-2.718c-0.005-0.045-0.011-0.086-0.017-0.129
		c0.115,0.016,0.226,0.027,0.322,0.027C124.432,20.98,124.596,20.618,124.596,19.995z M121.859,19.917
		c-0.008,0.005-0.017,0.011-0.024,0.018l-0.774-0.014l0.019-0.026L121.859,19.917z"/>
</g>
<path fill="#FFFFFF" d="M174.303,13.159h-0.523c-1.28,1.805-2.041,5.127-4.225,6.313l0.191,0.57c0,0-4.514,6.979-5.556,9.685
	c-0.142,0.379-0.762,1.139-0.142,1.329c0.142,0.048,0.473-0.949,0.522-1.092c1.091-2.468,1.898-6.171,3.608-8.118
	c0.663-0.236,0.188,0.333,0.093,0.476c-1.659,2.8-2.469,6.028-3.845,9.351c-0.949,2.232-1.282,4.271-1.046,5.224
	c-0.853-0.285-1.612-0.619-2.374-1.045c0,0-0.473-0.902-0.521-0.38c-1.091-0.807-1.993-1.9-2.61-3.561
	c0-8.545,8.829-20.225,12.248-26.491c0.285-0.38,0.903-0.665,1.425-0.665c0.477,0,0.95,0.19,1.472,0.333v1.138
	c0.95,0.38,1.711,1.472,1.711,2.517C174.731,10.025,174.541,11.735,174.303,13.159z M163.193,32.103l-0.521,1.28
	c-0.048,0.143,0.096,0.618,0.378,0.143l0.665-1.66C163.05,31.199,163.24,31.96,163.193,32.103z"/>
<path fill="#FFFFFF" d="M186.194,28.495c-0.901,2.467-1.708,4.938-2.23,7.072c-1.14,0.096-2.28-0.046-3.087-0.237l0.19-0.521
	c-1.233-0.429-1.14-2.042-1.327-3.894c-0.191-0.237-0.382-0.664-0.382-0.997c0-1.188,2.706-8.214,5.079-13.626h-3.702
	c-2.09,0-2.23,0.665-3.749,0.285c-0.714-1.092-1.568-3.181-1.568-4.606c0-0.57,0.19-1.091,0.664-1.566
	c1.854,0.19,6.269,0.38,9.164-0.19c4.795-0.998,2.704-5.507,7.12-5.507l2.043,4.083c3.132-0.665,6.646-1.424,8.829-1.709
	c2.042,0.522,3.704,1.376,4.321,3.086c-0.808,0.712-0.379,1.947,0.047,2.659c-0.235,0.142-0.475,0.237-0.759,0.332l-0.096-0.285
	c-0.285-0.142-0.521-0.19-0.663-0.19c-0.191,0-0.334,0.143-0.334,0.332c0,0.143,0.047,0.285,0.096,0.38
	c-2.849,0.57-7.026,0.19-10.966,1.9h-0.666v-0.523c-0.428-0.048-0.759,0.191-1.044,0.57c-1.614,0.19-2.137,0.808-3.134,3.798
	c-0.141,0.428-0.712,0.998-0.997,1.234l0.427,0.238c-0.236,0.998-1.168,2.446-1.422,2.849c-0.664,1.049-0.856,1.947-0.856,2.328
	c-0.236,0.616-0.475,1.66-0.808,1.66L186.194,28.495z M188.427,21.136l-0.477,0.853l0.286,0.334l0.38-0.855L188.427,21.136z"/>
<path fill="#FFFFFF" d="M220.948,29.49c0,0-1.804,2.754-2.185,3.513c-0.426,0.19-0.759,1.757-0.759,1.757l0.308-0.663l-1.188,3.607
	c-0.188,0.76-0.285,1.519-0.331,2.138c-0.38,0.188-0.996,0.283-1.473,0.283c-1.566,0-2.753-0.568-3.512-1.234
	c-0.049-0.474-0.332-0.664-0.666-0.664c-0.38-0.476-0.523-0.854-0.475-0.997c0.761-3.989,3.299-7.405,5.247-12.866l-0.331-0.286
	c-1.474,0-2.661-0.284-3.941-0.901c-0.19,0.285-0.476,0.38-0.854,0l-3.704-3.086c-2.896-4.226-0.759-9.162,1.852-13.531l0.666,0.285
	c0.094-0.236,0.188-0.427,0.284-0.521c0.143-0.142,0.285-0.238,0.427-0.238c0.286,0,2.657,0.997,3.845,1.519l0.761,1.33
	c-0.428,2.706-2.137,4.036-2.42,6.789l-0.714,0.57c-0.332,1.994-0.142,3.18,0.997,4.653c3.181,0.284,5.648-1.188,7.074-3.181
	l5.032-7.074l0.379,0.617l1.901-2.753c0.329-0.475,0.758-0.475,1.184-0.143c1.236-0.997,2.28-1.091,3.134-0.664
	c-0.046,0.57,0.19,0.807,0.998,0.902c0.522,0.711,0.901,1.709,1.093,2.8c-0.476,1.188-4.225,5.651-4.225,5.651
	c-1.854,1.946-3.706,3.845-4.322,5.649c0,0-2.087,2.515-2.801,3.608c-0.332,0.522-0.236,1.188-0.332,1.756
	c0,0-0.135-0.062-0.617,1.045L220.948,29.49z M217.222,37.324c-0.617-0.427-0.189-1.66,0.617-1.946l0.048,0.047L217.222,37.324z
	 M230.963,15.343c-0.282,0.332-1.125,0.689-1.125,0.689S230.395,15.058,230.963,15.343z"/>
<path fill="#FFFFFF" d="M62.642,27.472"/>
<g>
	<path fill="#FFFFFF" d="M42.752,47.888l1.58,0.016c0.083,0.001,0.122,0.054,0.122,0.162l0.188,0.003c0.08,0,0.122,0.056,0.12,0.162
		l0.204,0.003l0.894,0.912l-0.002,0.19c0.108,0.016,0.161,0.056,0.161,0.122l-0.001,0.163c0,0.081-0.056,0.119-0.163,0.119
		l-0.002,0.189l-0.123,0.121l-0.783-0.009c-0.496-0.478-0.75-0.734-0.75-0.791h-0.19c-0.065-0.003-0.106-0.056-0.118-0.164
		l-0.717-0.006c0,0.106-0.042,0.162-0.109,0.162l-0.202-0.003c-0.002,0.094-0.042,0.147-0.123,0.146l-0.19-0.001
		c-0.001,0.094-0.109,0.2-0.327,0.321l-0.001,0.189c-0.002,0.079-0.055,0.121-0.151,0.118l-0.001,0.352
		c0,0.081-0.058,0.121-0.164,0.12l-0.04,4.026c0.11,0.012,0.163,0.054,0.163,0.121l-0.006,0.513c0.094,0.016,0.149,0.044,0.147,0.11
		l-0.001,0.204c0.094,0,0.255,0.163,0.47,0.476l0.202,0.002c0.079,0.001,0.12,0.056,0.119,0.164l1.026,0.008
		c0.015-0.105,0.042-0.16,0.109-0.16l0.204,0.003c0.001-0.094,0.164-0.243,0.478-0.47l0.001-0.202c0-0.067,0.053-0.095,0.162-0.105
		l0.003-0.205l0.108-0.118l0.204,0.001c0.014-0.093,0.055-0.147,0.122-0.147l0.311,0.004c0.081,0.001,0.121,0.055,0.121,0.149
		l0.2,0.002l0.108,0.122l-0.004,0.635c-0.001,0.082-0.056,0.122-0.15,0.119l-0.005,0.353l-1.241,1.204l-0.513-0.007
		c0,0.109-0.041,0.161-0.122,0.161l-1.418-0.012c-0.068,0-0.094-0.057-0.108-0.164h-0.202c-0.069-0.002-0.106-0.055-0.122-0.152
		l-0.188-0.001c-0.188-0.15-0.281-0.26-0.281-0.326l-0.188-0.003l-0.441-0.436v-0.188c-0.067,0-0.159-0.098-0.307-0.285l0.001-0.19
		c-0.108-0.001-0.163-0.043-0.161-0.124l0.005-0.514c-0.094,0-0.148-0.042-0.148-0.124l0.006-0.511
		c-0.109-0.002-0.162-0.043-0.161-0.124l0.026-2.835c0-0.07,0.056-0.108,0.164-0.122l0.013-1.295
		c0.001-0.066,0.055-0.107,0.149-0.12l0.004-0.35c0-0.067,0.054-0.109,0.163-0.123l0.003-0.188l1.077-1.056h0.188
		c0.016-0.105,0.057-0.16,0.125-0.16l0.364,0.005C42.658,47.94,42.686,47.887,42.752,47.888z"/>
	<path fill="#FFFFFF" d="M71.12,48.076l0.633,0.008c0.079,0,0.12,0.054,0.12,0.162l0.351,0.002l0.283,0.274l-0.003,0.201
		c0.093,0.014,0.147,0.057,0.146,0.124l-0.003,0.351c0.108,0.014,0.161,0.057,0.161,0.124l-0.006,0.514
		c0.109,0.015,0.163,0.055,0.163,0.121l-0.003,0.191c0.096,0.013,0.149,0.056,0.149,0.122l-0.003,0.35
		c0.106,0.015,0.161,0.058,0.159,0.125l-0.006,0.513c0.109,0.014,0.163,0.056,0.163,0.123l-0.004,0.513
		c0.094,0.013,0.147,0.043,0.147,0.11l-0.005,0.364c0.108,0.014,0.163,0.041,0.161,0.108l-0.001,0.205
		c0.107,0.012,0.161,0.054,0.161,0.122l-0.003,0.351c0.094,0.015,0.149,0.054,0.148,0.123l-0.005,0.351
		c0.108,0.015,0.161,0.056,0.161,0.123l-0.003,0.353c0.108,0.014,0.163,0.056,0.161,0.123l-0.004,0.351
		c0.096,0.014,0.149,0.055,0.149,0.122l-0.005,0.351c0.109,0.016,0.163,0.057,0.161,0.123l-0.001,0.352
		c0.107,0.015,0.161,0.056,0.159,0.124l-0.004,0.514c0.094,0.013,0.147,0.056,0.146,0.123v0.188
		c0.106,0.015,0.161,0.056,0.159,0.124l-0.006,0.798l-0.272,0.267l-0.637-0.007c-0.067,0-0.108-0.055-0.119-0.163l-0.189-0.003
		l-0.12-0.109l0.001-0.202c-0.108-0.001-0.161-0.041-0.161-0.123l0.005-0.35c-0.109-0.002-0.163-0.042-0.162-0.125l0.008-0.823
		c-0.095,0-0.149-0.042-0.149-0.122l0.005-0.351c-0.108-0.002-0.162-0.043-0.162-0.123l0.001-0.202
		c-0.107-0.003-0.161-0.057-0.159-0.151l-1.337-0.013c0,0.096-0.04,0.148-0.122,0.147l-1.77-0.016l-0.002,0.199
		c-0.001,0.083-0.056,0.122-0.162,0.122l-0.007,0.661c0,0.081-0.057,0.122-0.15,0.122l-0.005,0.514c0,0.081-0.055,0.119-0.163,0.118
		l-0.004,0.514l-0.436,0.428l-0.796-0.008l-0.268-0.271l0.008-0.796c0-0.068,0.055-0.109,0.163-0.122l0.002-0.188
		c0.001-0.068,0.056-0.108,0.15-0.122l0.006-0.511c0-0.068,0.053-0.107,0.163-0.122l0.003-0.514
		c0.002-0.066,0.057-0.093,0.164-0.105l0.002-0.201c0-0.066,0.054-0.108,0.15-0.121l0.003-0.35c0-0.068,0.055-0.109,0.165-0.12
		l0.001-0.352c0-0.068,0.056-0.108,0.163-0.12l0.007-0.662c0-0.065,0.055-0.107,0.15-0.12l0.002-0.203
		c0-0.067,0.055-0.108,0.162-0.119l0.003-0.352c0-0.068,0.056-0.109,0.165-0.12l0.003-0.351c0-0.069,0.053-0.106,0.149-0.121
		l0.007-0.514c0-0.066,0.054-0.094,0.163-0.104l0.003-0.365c0-0.068,0.055-0.095,0.162-0.109l0.004-0.362
		c0-0.068,0.056-0.095,0.162-0.105l0.006-0.514c0.001-0.068,0.055-0.108,0.149-0.122l0.005-0.351c0-0.066,0.053-0.107,0.163-0.119
		l0.003-0.365l0.271-0.268l0.365,0.004C71.023,48.13,71.051,48.076,71.12,48.076z M71.226,49.577l-0.002,0.202
		c0,0.08-0.055,0.12-0.163,0.12l-0.006,0.514c0,0.067-0.056,0.106-0.149,0.106L70.9,51.033c0,0.079-0.053,0.12-0.161,0.12
		l-0.005,0.513c-0.001,0.083-0.057,0.121-0.164,0.119l-0.005,0.353c0,0.079-0.055,0.121-0.149,0.119l-0.007,0.675
		c0,0.069-0.056,0.108-0.163,0.107l-0.004,0.363c0,0.043-0.04,0.069-0.122,0.067l-0.04,0.039l-0.001,0.042l0.36,0.368
		c0.041,0,0.068-0.039,0.068-0.122l0.041-0.039l0.676,0.007c0.082,0,0.122,0.054,0.122,0.161l1.173,0.011
		c0.001-0.106,0.055-0.16,0.165-0.159l0.006-0.716c-0.106,0-0.163-0.043-0.161-0.109l0.005-0.364c-0.095,0-0.149-0.044-0.147-0.122
		l0.003-0.353c-0.109,0-0.161-0.041-0.161-0.124l0.004-0.512c-0.107,0-0.162-0.043-0.161-0.11l0.005-0.364
		c-0.096-0.001-0.149-0.043-0.149-0.108l0.006-0.515c-0.109,0-0.161-0.041-0.161-0.122l0.003-0.353c-0.106,0-0.161-0.041-0.16-0.121
		l0.001-0.205c-0.067,0-0.108-0.042-0.108-0.106l-0.04-0.041l-0.041-0.002l-0.122,0.147H71.226z"/>
	<path fill="#FFFFFF" d="M99.266,48.426l0.945,0.008c0.068,0,0.106,0.055,0.106,0.164l0.513,0.005c0.081,0,0.12,0.054,0.12,0.149
		l0.202,0.001c0.083,0.002,0.122,0.055,0.121,0.165h0.189c0.081,0.002,0.122,0.056,0.12,0.163l0.189,0.004l0.59,0.558l-0.002,0.081
		c0,0.042-0.054,0.067-0.149,0.066l-0.001,0.203l-0.285,0.269l-0.191-0.004c-0.001,0.108-0.041,0.161-0.122,0.161l-0.324-0.002
		c-0.175-0.149-0.27-0.247-0.267-0.313l-0.202-0.003c-0.175-0.149-0.268-0.259-0.268-0.326l-0.202-0.003
		c-0.068,0-0.095-0.054-0.107-0.148l-0.877-0.009c-0.001,0.095-0.042,0.149-0.109,0.149l-0.206-0.004c0,0.109-0.04,0.162-0.121,0.16
		l-0.188-0.001l-0.002,0.202c-0.15,0.174-0.259,0.268-0.327,0.268l-0.006,0.863c0.107,0.016,0.161,0.057,0.16,0.125l-0.002,0.201
		c0.094,0.002,0.241,0.166,0.467,0.478l0.204,0.002c0.067,0,0.107,0.056,0.106,0.149l0.367,0.004
		c0.067,0.001,0.106,0.057,0.105,0.163l0.202,0.002c0.081,0.001,0.122,0.053,0.12,0.163l0.19,0.002c0.08,0,0.12,0.056,0.12,0.148
		l0.202,0.004c0.068,0,0.108,0.055,0.107,0.161l0.202,0.004c0.08,0,0.12,0.054,0.12,0.162l0.188,0.001
		c0.296,0.261,0.444,0.409,0.443,0.478l0.188,0.003l0.281,0.271l-0.001,0.205c0.067,0,0.161,0.096,0.307,0.272l-0.002,0.363
		c0.107,0.016,0.161,0.043,0.161,0.111l-0.015,1.431c0,0.067-0.056,0.108-0.162,0.105l-0.002,0.203
		c-0.15,0.175-0.245,0.268-0.313,0.268l-0.002,0.202l-0.45,0.427h-0.188c-0.001,0.066-0.095,0.162-0.286,0.309l-0.353-0.004
		c0,0.107-0.041,0.16-0.122,0.16l-0.353-0.002c0,0.095-0.042,0.146-0.121,0.146l-0.784-0.006c-0.067-0.002-0.107-0.055-0.119-0.149
		l-0.663-0.007c-0.068-0.002-0.106-0.056-0.12-0.163l-0.202-0.004c-0.067,0-0.108-0.054-0.12-0.148l-0.19-0.003
		c-0.067,0-0.107-0.053-0.121-0.161l-0.202-0.003l-0.735-0.749l0.006-0.473l0.273-0.282l0.363,0.004
		c0.016-0.108,0.042-0.161,0.109-0.16c0.08,0,0.12,0.055,0.12,0.165h0.202c0.081,0,0.12,0.054,0.12,0.161l0.189,0.002
		c0.389,0.37,0.589,0.573,0.589,0.629l1.498,0.013c0.002-0.067,0.096-0.159,0.274-0.307h0.202l0.001-0.188
		c0.002-0.066,0.055-0.106,0.165-0.118l0.001-0.205c0-0.065,0.055-0.105,0.149-0.117l0.009-0.865
		c-0.094-0.002-0.149-0.042-0.148-0.123l0.002-0.188c-0.094,0-0.256-0.164-0.469-0.479l-0.203-0.001
		c-0.067-0.001-0.106-0.056-0.119-0.162l-0.189-0.004c-0.067,0-0.107-0.054-0.119-0.163l-0.352-0.004
		c-0.068,0-0.108-0.055-0.12-0.149l-0.205-0.002c-0.066,0-0.091-0.056-0.105-0.16l-0.202-0.004c-0.067,0-0.107-0.057-0.12-0.163
		l-0.353-0.005c-0.066,0-0.107-0.055-0.119-0.149h-0.189c-0.187-0.15-0.281-0.261-0.281-0.328l-0.201-0.003l-0.107-0.109
		l0.001-0.201c-0.067-0.001-0.175-0.097-0.321-0.273v-0.204c-0.094,0-0.146-0.04-0.146-0.121l0.005-0.351
		c-0.109-0.001-0.163-0.043-0.163-0.124l0.013-1.106c0-0.066,0.053-0.094,0.163-0.106l0.001-0.203c0-0.067,0.055-0.106,0.149-0.122
		l0.001-0.187l0.764-0.749l0.189,0.002c0.014-0.109,0.056-0.163,0.123-0.161h0.203c0.014-0.094,0.057-0.146,0.124-0.146l0.352,0.004
		C99.157,48.479,99.199,48.426,99.266,48.426z"/>
	<path fill="#FFFFFF" d="M127.941,48.645l0.798,0.007c0.067,0.003,0.109,0.055,0.105,0.163l0.202,0.002l0.122,0.122l-0.016,1.459
		c0.097,0.015,0.149,0.056,0.149,0.122l-0.01,0.945c0,0.083-0.056,0.123-0.149,0.12l-0.021,2.121
		c0.098,0.016,0.149,0.055,0.148,0.122l-0.005,0.634c-0.002,0.067-0.057,0.108-0.149,0.108l-0.002,0.242
		c0.092,0.016,0.146,0.055,0.146,0.125l-0.027,2.834l-0.436,0.429l-0.944-0.009l-0.12-0.122l0.001-0.188
		c-0.094-0.004-0.149-0.042-0.146-0.124l0.069-7.455c-0.109-0.001-0.161-0.042-0.161-0.123l0.01-0.944
		c-0.001-0.067,0.056-0.107,0.163-0.118l0.002-0.191L127.941,48.645z"/>
	<path fill="#FFFFFF" d="M154.51,49.045l0.163,0.002l0.749,0.749l-0.002,0.203c0.096,0.015,0.147,0.056,0.147,0.122l-0.003,0.188
		c0.108,0.016,0.161,0.057,0.161,0.124l-0.001,0.202c0.106,0.015,0.162,0.043,0.161,0.11l-0.003,0.202
		c0.096,0.015,0.147,0.055,0.147,0.122l-0.001,0.191c0.107,0.014,0.161,0.054,0.161,0.121l-0.002,0.205
		c0.066,0,0.161,0.094,0.308,0.271l-0.003,0.202c0.108,0.016,0.163,0.042,0.162,0.108l-0.004,0.366
		c0.106,0.014,0.161,0.056,0.16,0.122l-0.002,0.19c0.097,0.015,0.149,0.056,0.148,0.121l-0.002,0.19
		c0.105,0.015,0.162,0.055,0.161,0.123l-0.003,0.201c0.109,0.015,0.162,0.058,0.161,0.125l-0.002,0.188
		c0.067,0,0.162,0.098,0.308,0.286l-0.001,0.188c0.067,0.004,0.175,0.099,0.32,0.29v0.189c0.053,0,0.172,0.109,0.348,0.327
		l0.042-0.042l0.038,0.003l-0.038-0.204l0.01-0.906c0-0.067,0.054-0.105,0.149-0.119l0.008-0.862
		c-0.095-0.004-0.148-0.042-0.146-0.125l0.03-3.308l0.272-0.281l0.204,0.002c0.013-0.096,0.054-0.148,0.122-0.147l0.311,0.004
		l0.43,0.435l-0.082,8.522l-0.438,0.414l-0.309-0.003c-0.067,0-0.108-0.055-0.12-0.15l-0.203-0.002l-0.429-0.435l0.002-0.203
		c-0.107,0-0.16-0.045-0.16-0.109v-0.203c-0.093-0.003-0.147-0.041-0.145-0.123v-0.189c-0.109-0.001-0.16-0.042-0.16-0.122
		l0.004-0.352c-0.069-0.002-0.163-0.096-0.31-0.285l0.001-0.354c-0.066,0-0.172-0.097-0.318-0.285l0.002-0.189
		c-0.095-0.001-0.147-0.042-0.147-0.125l0.002-0.2c-0.108-0.002-0.161-0.042-0.16-0.11l0.001-0.202
		c-0.109-0.002-0.162-0.042-0.162-0.124l0.003-0.188c-0.096,0-0.148-0.041-0.148-0.122l0.002-0.204c-0.066,0-0.173-0.094-0.32-0.273
		l0.002-0.35c-0.066,0-0.16-0.098-0.306-0.288l0.001-0.188c-0.109-0.001-0.162-0.041-0.162-0.123l0.002-0.202
		c-0.106-0.001-0.16-0.057-0.16-0.15l-0.23-0.003l-0.004,0.515c0,0.068-0.055,0.105-0.164,0.105l-0.011,1.188
		c0.108,0.002,0.162,0.029,0.162,0.082l-0.003,0.083c0,0.039-0.053,0.066-0.161,0.065l-0.026,2.769
		c0.109,0.015,0.161,0.057,0.161,0.123l-0.002,0.312c-0.002,0.079-0.056,0.119-0.163,0.118l-0.003,0.188l-0.271,0.268l-0.473-0.003
		l-0.43-0.423l0.047-4.93c-0.109,0-0.162-0.042-0.161-0.123l0.006-0.636c0.003-0.067,0.056-0.106,0.164-0.119l0.025-2.716
		l0.274-0.279h0.202C154.416,49.097,154.443,49.044,154.51,49.045z"/>
	<path fill="#FFFFFF" d="M185.063,49.133h0.163c0.066,0.001,0.11,0.055,0.106,0.15l0.514,0.005c0.081,0,0.119,0.056,0.118,0.164
		l0.352,0.001c0.083,0.002,0.121,0.058,0.12,0.167h0.203l0.736,0.75l-0.001,0.201c0.066,0.001,0.175,0.097,0.32,0.272l-0.003,0.366
		c0.094,0.015,0.148,0.042,0.148,0.109l-0.004,0.202c0.108,0.015,0.162,0.057,0.162,0.123l-0.006,0.514
		c0.108,0.014,0.161,0.043,0.161,0.11l-0.006,0.674c0.094,0.016,0.147,0.058,0.147,0.124l-0.024,2.524
		c0,0.068-0.057,0.109-0.15,0.107l-0.004,0.514c-0.002,0.08-0.056,0.121-0.163,0.119l-0.007,0.513c0,0.083-0.055,0.121-0.161,0.12
		l-0.002,0.202c0,0.067-0.056,0.108-0.149,0.106l-0.004,0.205l-0.926,0.894l-0.188-0.001c-0.001,0.107-0.042,0.164-0.122,0.161
		l-0.189-0.001c-0.001,0.093-0.043,0.146-0.122,0.146l-0.677-0.006c0,0.108-0.041,0.161-0.124,0.161l-0.619-0.006
		c-0.069-0.001-0.109-0.054-0.122-0.164l-0.353-0.003c-0.065,0-0.105-0.056-0.117-0.149l-0.202-0.002
		c-0.069,0-0.107-0.056-0.121-0.164l-0.188-0.001l-0.896-0.916l0.001-0.199c-0.11-0.003-0.161-0.044-0.161-0.109l0.001-0.205
		c-0.106,0-0.163-0.042-0.161-0.12l0.003-0.354c-0.094,0-0.145-0.041-0.145-0.122l0.005-0.514c-0.109,0-0.164-0.042-0.162-0.123
		l0.032-3.31c0-0.066,0.054-0.106,0.163-0.118l0.007-0.824c0-0.067,0.055-0.108,0.151-0.12l0.001-0.19
		c0-0.067,0.055-0.105,0.162-0.118l0.002-0.204c0-0.066,0.054-0.094,0.163-0.105l0.003-0.203c0.15-0.175,0.245-0.268,0.312-0.267
		l0.004-0.202l0.121-0.122l0.188,0.003c0.002-0.066,0.097-0.161,0.288-0.31l0.19,0.004c0.014-0.108,0.054-0.162,0.121-0.162
		l0.364,0.005c0.016-0.108,0.044-0.164,0.108-0.16l0.516,0.002C184.956,49.185,184.997,49.132,185.063,49.133z M184.701,50.465
		c-0.001,0.109-0.042,0.163-0.124,0.161h-0.202c-0.002,0.094-0.11,0.186-0.313,0.306l-0.003,0.203c0,0.069-0.054,0.106-0.162,0.105
		l-0.001,0.203c-0.002,0.082-0.057,0.121-0.15,0.12l-0.003,0.19c0,0.079-0.054,0.119-0.163,0.119l-0.003,0.514
		c-0.002,0.08-0.056,0.121-0.165,0.121l-0.028,3.077c0.109,0.016,0.162,0.043,0.161,0.11l-0.005,0.363
		c0.109,0.016,0.162,0.044,0.162,0.109l-0.004,0.366c0.094,0.016,0.149,0.042,0.149,0.108l-0.002,0.203
		c0.094,0.001,0.254,0.166,0.469,0.479h0.201c0.079,0,0.12,0.055,0.12,0.164l1.026,0.01c0.014-0.107,0.041-0.161,0.107-0.161
		l0.203,0.003c0.003-0.083,0.221-0.296,0.643-0.63l0.003-0.188c0-0.067,0.053-0.108,0.146-0.121l0.007-0.677
		c0-0.066,0.057-0.093,0.164-0.106l0.025-2.766c-0.107-0.003-0.161-0.044-0.16-0.126l0.005-0.499c-0.094,0-0.148-0.042-0.148-0.122
		l0.004-0.365c-0.109-0.001-0.161-0.041-0.16-0.108l0.002-0.364c-0.092-0.003-0.293-0.207-0.628-0.628l-0.188-0.004
		c-0.067,0-0.108-0.053-0.119-0.161L184.701,50.465z"/>
</g>
<path fill="#FFFFFF" d="M149.353,29.776"/>
</svg>
