<?xml version="1.0" encoding="utf-8"?>
<!-- Generator: Adobe Illustrator 16.0.0, SVG Export Plug-In . SVG Version: 6.00 Build 0)  -->
<!DOCTYPE svg PUBLIC "-//W3C//DTD SVG 1.1//EN" "http://www.w3.org/Graphics/SVG/1.1/DTD/svg11.dtd">
<svg version="1.1" id="Layer_1" xmlns="http://www.w3.org/2000/svg" xmlns:xlink="http://www.w3.org/1999/xlink" x="0px" y="0px"
	 width="50px" height="50px" viewBox="0 0 50 50" enable-background="new 0 0 50 50" xml:space="preserve">
<g>
	<path fill="#010202" d="M47.258,41.945c1.775,1.776,2.027,4.406,0.561,5.873l0,0c-1.467,1.467-4.097,1.215-5.873-0.561L2.743,8.054
		C0.966,6.278,0.715,3.649,2.182,2.182l0,0c1.467-1.467,4.096-1.216,5.872,0.56L47.258,41.945z"/>
	<path fill="#010202" d="M8.055,47.258c-1.776,1.775-4.406,2.027-5.873,0.561l0,0c-1.467-1.467-1.215-4.097,0.561-5.873
		L41.946,2.743c1.776-1.776,4.405-2.027,5.872-0.561l0,0c1.467,1.467,1.216,4.096-0.561,5.872L8.055,47.258z"/>
</g>
</svg>
