<?xml version="1.0" encoding="utf-8"?>
<!-- Generator: Adobe Illustrator 16.0.0, SVG Export Plug-In . SVG Version: 6.00 Build 0)  -->
<!DOCTYPE svg PUBLIC "-//W3C//DTD SVG 1.1//EN" "http://www.w3.org/Graphics/SVG/1.1/DTD/svg11.dtd">
<svg version="1.1" id="Layer_1" xmlns="http://www.w3.org/2000/svg" xmlns:xlink="http://www.w3.org/1999/xlink" x="0px" y="0px"
	 width="50px" height="50px" viewBox="0 0 50 50" enable-background="new 0 0 50 50" xml:space="preserve">
<path d="M48.044,39.074L27.939,6.55c-1.617-2.618-4.25-2.625-5.872,0L1.96,39.074c-2.171,3.513-0.586,6.342,3.522,6.342h39.039
	C48.63,45.416,50.206,42.576,48.044,39.074z M25.004,39.824c-1.03,0-1.864-0.834-1.864-1.864s0.834-1.864,1.864-1.864
	c1.032,0,1.863,0.834,1.863,1.864S26.034,39.824,25.004,39.824z M26.867,30.51c0,1.014-0.831,1.858-1.863,1.858
	c-1.036,0-1.864-0.832-1.864-1.858V19.314c0-1.014,0.834-1.857,1.864-1.857c1.037,0,1.863,0.831,1.863,1.857V30.51z"/>
</svg>
