<?xml version="1.0" encoding="utf-8"?>
<!-- Generator: Adobe Illustrator 16.0.0, SVG Export Plug-In . SVG Version: 6.00 Build 0)  -->
<!DOCTYPE svg PUBLIC "-//W3C//DTD SVG 1.1//EN" "http://www.w3.org/Graphics/SVG/1.1/DTD/svg11.dtd">
<svg version="1.1" id="Layer_1" xmlns="http://www.w3.org/2000/svg" xmlns:xlink="http://www.w3.org/1999/xlink" x="0px" y="0px"
	 width="50px" height="50px" viewBox="0 0 50 50" enable-background="new 0 0 50 50" xml:space="preserve">
<g id="globe_x5F_af">
	<path fill="#010202" d="M25.064,0.495c-9.532,0-18.43,5.718-22.454,14.404c-4.026,8.897-2.332,19.489,4.236,26.69
		c6.566,7.203,16.947,9.746,26.057,6.569c8.897-3.178,15.464-11.44,16.522-20.763C50.909,13.205,39.258,0.495,25.064,0.495z
		 M16.167,11.086c0.635-1.907,4.236,1.059,2.331,2.754c-0.424,0.424-2.965,0.424-2.542-0.213c0.211-0.211,0.635-0.211,0.846-0.635
		C17.439,12.568,16.591,11.722,16.167,11.086z M33.539,38.625c0,0.847-0.636,2.753-1.694,2.753c-0.848,0-0.848-1.059-0.637-1.693
		c0.212-1.908,1.061-2.333,2.12-3.602C33.962,36.507,33.539,37.776,33.539,38.625z M35.868,25.067
		c-0.848,1.058-2.329,2.542-3.812,2.542c-1.059,0-1.059-3.177-2.33-3.813c-0.635-0.212-1.482,0.423-1.06,1.06
		c0.636,0.636,0.636,1.694,1.27,2.118c1.272,1.06,2.333,2.118,4.026,0.847c-0.214,1.907-1.693,2.967-2.754,4.236
		c-0.636,0.848-1.059,1.694-0.848,2.754c0.212,0.849,0.848,2.118,0,2.755c-0.425,0.423-1.483,0.848-1.483,1.695
		c0.214,0.211,0.214,0.635,0.214,1.059c-0.214,0.424-0.637,0.845-0.848,1.27c-0.425,0.848-1.485,2.543-2.544,2.968
		c-0.424,0.211-1.905,0.634-2.117,0c-1.06-1.272-0.636-4.451-1.271-5.932c-0.424-1.06,0.424-1.483,0.424-2.542
		c0-0.635-0.424-1.272-0.848-1.907c-0.424-0.847-0.424-1.271-0.424-2.119c0-0.845-0.845-0.424-1.27-0.635
		c-0.424-0.21-0.636-0.848-1.272-0.424s-2.33,0.635-3.178,0.635c-1.059-0.211-2.119-2.33-2.33-3.178
		c-0.21-0.846,0.424-1.694,0.211-2.33c-0.211-0.633,0-1.481,0.424-1.906c0.636-0.846,1.695-2.33,2.543-2.966
		c0.635-0.424,1.483,0,2.33-0.212c0.636-0.212,1.697-0.422,2.542-0.212c0.848,0.212,0,1.06,0.424,1.271
		c0.635,0.424,1.059,0.638,1.695,1.06c0.635,0.425,0.848-0.636,1.272-0.846c0.421-0.214,1.27-0.214,1.694,0
		c1.059,0.21,3.178-0.425,2.118-1.908c-0.423-0.424-1.271-0.635-1.908-0.846c-0.635-0.213-0.21-1.483-1.27-1.483
		c-0.634,0.21,0.211,0.846,0,1.271c-0.423,0.635-1.271-0.846-1.271-1.06c-0.211-0.21-1.695-2.329-2.119-1.904
		c-0.21,0.21,2.543,3.177,0.424,2.54c0-0.846-0.846-0.846-1.27-1.481c-0.635-0.637-1.06-0.424-1.695,0.211
		c-0.636,0.634-1.696,1.27-2.331,1.694c-1.693,0.848-1.483-0.846-1.483-1.906c0-0.637,1.059-0.424,1.483-0.424
		c1.059-0.424,0-1.059-0.21-1.483c0.424-0.424,2.33-1.06,2.964-1.271c1.272-0.424,2.331-1.272,3.814-0.637
		c0.212,0,2.119-1.059,0.847-1.481c-1.483-0.848-1.695,0.423-2.753,0.847c0-1.271-3.178-1.482-1.907-3.178
		c1.059-1.48,1.696-1.694,4.45-1.694c1.904-0.211,2.965,0,3.389,0.211c0.425,0.213,0.636,1.697-0.424,1.907
		c0.212,1.694,1.907,0.211,2.755-0.21c1.059-0.638,3.599-0.214,3.812-0.638c0.425-0.211-0.214-1.059,0-1.481
		c0.211-0.424,0.848-0.213,1.059,0.211c1.271,0.211,1.695-0.635,3.179,0.211c3.812,2.542,6.99,6.355,8.473,12.288
		c0.636,2.754,0.847,5.718,0,5.506c-0.634-0.209-0.213-1.269-0.634-1.693c-0.849,0.212-2.543,1.693-2.968,2.542
		c-0.211,0.422,0.212,2.541-0.848,2.541c-0.422,0-0.636-1.694-0.636-1.905c-0.21-0.849-0.424-1.694-0.634-2.332
		c-0.425-0.846-0.849-0.422-1.483-0.422c-0.847-0.212-0.637-1.271-1.695-1.271C36.082,23.374,35.868,24.219,35.868,25.067z"/>
</g>
</svg>
