<?xml version="1.0" encoding="utf-8"?>
<!-- Generator: Adobe Illustrator 16.0.0, SVG Export Plug-In . SVG Version: 6.00 Build 0)  -->
<!DOCTYPE svg PUBLIC "-//W3C//DTD SVG 1.1//EN" "http://www.w3.org/Graphics/SVG/1.1/DTD/svg11.dtd">
<svg version="1.1" id="Layer_1" xmlns="http://www.w3.org/2000/svg" xmlns:xlink="http://www.w3.org/1999/xlink" x="0px" y="0px"
	 width="50px" height="50px" viewBox="0 0 50 50" enable-background="new 0 0 50 50" xml:space="preserve">
<g>
	<path d="M24.672,0.502C11.143,0.684,0.323,11.8,0.502,25.33c0.182,13.523,11.296,24.347,24.826,24.168
		c13.526-0.183,24.35-11.299,24.17-24.828C49.316,11.145,38.201,0.322,24.672,0.502z M27.389,8.667c2.49,0,3.226,1.445,3.226,3.097
		c0,2.065-1.652,3.974-4.472,3.974c-2.36,0-3.482-1.187-3.417-3.147C22.726,10.938,24.111,8.667,27.389,8.667z M21.004,40.312
		c-1.702,0-2.949-1.032-1.759-5.575l1.952-8.056c0.34-1.291,0.397-1.807,0-1.807c-0.51,0-2.719,0.892-4.024,1.769l-0.851-1.394
		c4.14-3.457,8.901-5.485,10.941-5.485c1.702,0,1.986,2.013,1.136,5.11l-2.236,8.468c-0.396,1.498-0.226,2.013,0.169,2.013
		c0.513,0,2.185-0.621,3.829-1.912l0.964,1.291C27.099,38.761,22.704,40.312,21.004,40.312z"/>
</g>
</svg>
