<?xml version="1.0" encoding="utf-8"?>
<!-- Generator: Adobe Illustrator 16.0.0, SVG Export Plug-In . SVG Version: 6.00 Build 0)  -->
<!DOCTYPE svg PUBLIC "-//W3C//DTD SVG 1.1//EN" "http://www.w3.org/Graphics/SVG/1.1/DTD/svg11.dtd">
<svg version="1.1" id="Layer_1" xmlns="http://www.w3.org/2000/svg" xmlns:xlink="http://www.w3.org/1999/xlink" x="0px" y="0px"
	 width="50px" height="50px" viewBox="0 0 50 50" enable-background="new 0 0 50 50" xml:space="preserve">
<g id="lock">
	<path fill="#010202" d="M43.186,21.23h-2.449v-9.422c0-5.842-5.465-11.308-11.119-11.308h-9.611c-5.842,0-11.12,5.466-11.12,11.308
		v9.422h-2.45c-0.753,0-1.32,0.565-1.32,1.13V48.37c0,0.564,0.567,1.13,1.32,1.13h37.126c0.756,0,1.32-0.565,1.32-1.13V22.361
		C44.506,21.796,43.941,21.23,43.186,21.23z M16.237,11.808c0-2.64,1.129-3.77,3.769-3.77h9.424c2.639,0,3.77,1.13,3.77,3.77v9.422
		H16.237V11.808z M26.602,35.178v4.899c0,0.565-0.377,0.942-0.942,0.942h-1.884c-0.565,0-0.942-0.377-0.942-0.942v-4.899
		c-1.13-0.566-1.884-1.884-1.884-3.204c0-2.074,1.696-3.77,3.77-3.77c2.073,0,3.768,1.695,3.768,3.77
		C28.486,33.294,27.732,34.611,26.602,35.178z"/>
</g>
</svg>
