<?xml version="1.0" encoding="utf-8"?>
<!-- Generator: Adobe Illustrator 16.0.0, SVG Export Plug-In . SVG Version: 6.00 Build 0)  -->
<!DOCTYPE svg PUBLIC "-//W3C//DTD SVG 1.1//EN" "http://www.w3.org/Graphics/SVG/1.1/DTD/svg11.dtd">
<svg version="1.1" id="Layer_1" xmlns="http://www.w3.org/2000/svg" xmlns:xlink="http://www.w3.org/1999/xlink" x="0px" y="0px"
	 width="50px" height="50px" viewBox="0 0 50 50" enable-background="new 0 0 50 50" xml:space="preserve">
<g id="search_1_">
	<path fill="#010202" d="M48.977,42.986L36.814,30.823c2.062-3.093,3.092-6.596,3.092-10.514c0-10.72-8.863-19.585-19.585-19.585
		C9.601,0.725,0.736,9.59,0.736,20.31s8.865,19.585,19.585,19.585c3.916,0,7.421-1.236,10.514-3.093l12.164,12.163
		c0.413,0.413,1.03,0.413,1.444,0l4.326-4.33C49.389,44.017,49.389,43.399,48.977,42.986z M7.126,20.104
		c0-7.422,5.979-13.4,13.399-13.4c7.424,0,13.401,5.979,13.401,13.4s-5.977,13.4-13.401,13.4
		C13.106,33.505,7.126,27.526,7.126,20.104z"/>
</g>
</svg>
