<?xml version="1.0" encoding="utf-8"?>
<!-- Generator: Adobe Illustrator 16.0.0, SVG Export Plug-In . SVG Version: 6.00 Build 0)  -->
<!DOCTYPE svg PUBLIC "-//W3C//DTD SVG 1.1//EN" "http://www.w3.org/Graphics/SVG/1.1/DTD/svg11.dtd">
<svg version="1.1" id="Layer_1" xmlns="http://www.w3.org/2000/svg" xmlns:xlink="http://www.w3.org/1999/xlink" x="0px" y="0px"
	 width="50px" height="50px" viewBox="0 0 50 50" enable-background="new 0 0 50 50" xml:space="preserve">
<path d="M25,0.5C11.469,0.5,0.5,11.469,0.5,25c0,13.531,10.969,24.5,24.5,24.5c13.531,0,24.5-10.969,24.5-24.5
	C49.5,11.469,38.531,0.5,25,0.5z M33.562,25.782L22.47,33.866c-0.808,0.623-1.47,0.165-1.47-1.02V17.154
	c0-1.185,0.662-1.644,1.47-1.02l11.092,8.084c0,0,0.394,0.326,0.394,0.782C33.955,25.457,33.562,25.782,33.562,25.782z"/>
</svg>
