<?xml version="1.0" encoding="utf-8"?>
<!-- Generator: Adobe Illustrator 16.0.0, SVG Export Plug-In . SVG Version: 6.00 Build 0)  -->
<!DOCTYPE svg PUBLIC "-//W3C//DTD SVG 1.1//EN" "http://www.w3.org/Graphics/SVG/1.1/DTD/svg11.dtd">
<svg version="1.1" id="Layer_1" xmlns="http://www.w3.org/2000/svg" xmlns:xlink="http://www.w3.org/1999/xlink" x="0px" y="0px"
	 width="50px" height="50px" viewBox="0 0 50 50" enable-background="new 0 0 50 50" xml:space="preserve">
<g>
	<path d="M38.408,10.553l-0.006,0.006c-0.565-0.594-1.361-0.964-2.245-0.964c-1.713,0-3.104,1.389-3.104,3.103
		c0,1.19,0.674,2.224,1.658,2.744c3.679,2.883,6.042,7.367,6.042,12.402c0,8.701-7.054,15.754-15.754,15.754
		S9.246,36.545,9.246,27.844c0-5.039,2.367-9.523,6.049-12.407c0.979-0.521,1.646-1.554,1.646-2.739
		c0-1.714-1.388-3.103-3.101-3.103c-0.884,0-1.68,0.37-2.245,0.961l-0.003-0.003c-5.155,4.003-8.474,10.26-8.474,17.291
		c0,12.084,9.796,21.881,21.881,21.881c12.083,0,21.881-9.797,21.881-21.881C46.881,20.813,43.562,14.557,38.408,10.553z"/>
	<path d="M24.307,25.875h1.386c1.127,0,2.042-0.915,2.042-2.043V2.317c0-1.128-0.915-2.042-2.042-2.042h-1.386
		c-1.129,0-2.042,0.914-2.042,2.042v21.516C22.265,24.961,23.178,25.875,24.307,25.875z"/>
</g>
</svg>
