<?xml version="1.0" encoding="utf-8"?>
<!-- Generator: Adobe Illustrator 16.0.0, SVG Export Plug-In . SVG Version: 6.00 Build 0)  -->
<!DOCTYPE svg PUBLIC "-//W3C//DTD SVG 1.1//EN" "http://www.w3.org/Graphics/SVG/1.1/DTD/svg11.dtd">
<svg version="1.1" id="Layer_1" xmlns="http://www.w3.org/2000/svg" xmlns:xlink="http://www.w3.org/1999/xlink" x="0px" y="0px"
	 width="50px" height="50px" viewBox="0 0 50 50" enable-background="new 0 0 50 50" xml:space="preserve">
<path d="M25,0.5C11.469,0.5,0.5,11.469,0.5,25c0,13.53,10.969,24.5,24.5,24.5c13.53,0,24.5-10.97,24.5-24.5
	C49.5,11.469,38.53,0.5,25,0.5z M38.794,14.804L24.156,36.446l-0.01,0.017l-0.213,0.341l-0.463,0.322l-0.117,0.08l-0.747,0.304
	l-0.261,0.061l-0.645,0.007l-0.443-0.067l-0.44-0.175l-0.365-0.137l-0.204-0.199l-0.097-0.061l-8.524-7.628
	c-1.083-0.971-1.149-2.605-0.148-3.656c1.005-1.048,2.7-1.112,3.783-0.144l6.161,5.522l12.898-19.068
	c0.809-1.199,2.468-1.535,3.698-0.751C39.256,11.998,39.604,13.602,38.794,14.804z"/>
</svg>
