<?xml version="1.0" encoding="utf-8"?>
<!-- Generator: Adobe Illustrator 16.0.0, SVG Export Plug-In . SVG Version: 6.00 Build 0)  -->
<!DOCTYPE svg PUBLIC "-//W3C//DTD SVG 1.1//EN" "http://www.w3.org/Graphics/SVG/1.1/DTD/svg11.dtd">
<svg version="1.1" id="Layer_1" xmlns="http://www.w3.org/2000/svg" xmlns:xlink="http://www.w3.org/1999/xlink" x="0px" y="0px"
	 width="50px" height="50px" viewBox="0 0 50 50" enable-background="new 0 0 50 50" xml:space="preserve">
<path d="M43.72,1.078c-1.77-1.445-4.154-0.826-5.317,1.385l-18.544,35.17l-8.86-10.187c-1.557-1.785-3.994-1.667-5.439,0.266
	c-1.439,1.938-1.344,4.952,0.213,6.743l12.256,14.068l0.139,0.113l0.294,0.367l0.525,0.252l0.633,0.32l0.638,0.126l0.927-0.014
	l0.374-0.112l1.076-0.56l0.168-0.147l0.664-0.594l0.307-0.63l0.013-0.028L44.833,7.699C45.997,5.482,45.497,2.523,43.72,1.078z"/>
</svg>
