<?xml version="1.0" encoding="utf-8"?>
<!-- Generator: Adobe Illustrator 16.0.0, SVG Export Plug-In . SVG Version: 6.00 Build 0)  -->
<!DOCTYPE svg PUBLIC "-//W3C//DTD SVG 1.1//EN" "http://www.w3.org/Graphics/SVG/1.1/DTD/svg11.dtd">
<svg version="1.1" id="Layer_1" xmlns="http://www.w3.org/2000/svg" xmlns:xlink="http://www.w3.org/1999/xlink" x="0px" y="0px"
	 width="50px" height="50px" viewBox="0 0 50 50" enable-background="new 0 0 50 50" xml:space="preserve">
<path d="M49.75,9.648c-1.822,0.808-3.779,1.354-5.832,1.598c2.096-1.257,3.707-3.245,4.465-5.617
	c-1.961,1.163-4.133,2.009-6.447,2.464c-1.854-1.974-4.494-3.207-7.414-3.207c-5.609,0-10.156,4.548-10.156,10.157
	c0,0.796,0.089,1.571,0.263,2.313C16.187,16.935,8.706,12.892,3.694,6.744C2.822,8.247,2.321,9.99,2.321,11.851
	c0,3.522,1.792,6.633,4.517,8.453c-1.664-0.052-3.229-0.512-4.599-1.271v0.127c0,4.921,3.5,9.027,8.144,9.958
	c-0.851,0.231-1.748,0.359-2.674,0.359c-0.653,0-1.292-0.064-1.911-0.185c1.292,4.034,5.042,6.971,9.484,7.056
	c-3.473,2.721-7.851,4.346-12.611,4.346c-0.819,0-1.626-0.05-2.421-0.142c4.492,2.879,9.832,4.561,15.57,4.561
	c18.678,0,28.891-15.472,28.891-28.894c0-0.438-0.01-0.876-0.025-1.314C46.664,13.475,48.387,11.685,49.75,9.648z"/>
</svg>
