<?xml version="1.0" encoding="utf-8"?>
<!-- Generator: Adobe Illustrator 16.0.0, SVG Export Plug-In . SVG Version: 6.00 Build 0)  -->
<!DOCTYPE svg PUBLIC "-//W3C//DTD SVG 1.1//EN" "http://www.w3.org/Graphics/SVG/1.1/DTD/svg11.dtd">
<svg version="1.1" id="Layer_1" xmlns="http://www.w3.org/2000/svg" xmlns:xlink="http://www.w3.org/1999/xlink" x="0px" y="0px"
	 width="50px" height="50px" viewBox="0 0 50 50" enable-background="new 0 0 50 50" xml:space="preserve">
<path fill="#010202" d="M26.574,35.996c-0.161-1.766-0.1-3.001-0.1-4.616c0.8-0.42,2.235-3.101,2.479-5.364
	c0.628-0.05,1.621-0.667,1.911-3.092c0.158-1.303-0.465-2.036-0.846-2.266c1.025-3.082,3.154-12.616-3.936-13.602
	c-0.729-1.283-2.599-1.931-5.028-1.931c-9.714,0.18-10.885,7.336-8.756,15.532c-0.378,0.23-1.001,0.963-0.846,2.266
	c0.292,2.426,1.284,3.042,1.915,3.092c0.241,2.264,1.734,4.944,2.536,5.364c0,1.615,0.061,2.851-0.099,4.616
	c-1.923,5.17-14.894,3.72-15.493,13.688h41.695C41.409,39.716,28.496,41.166,26.574,35.996z"/>
<path fill="#010202" d="M48.122,29.564h-6.145v-6.145c0-0.526-0.351-0.877-0.878-0.877h-1.755c-0.526,0-0.878,0.352-0.878,0.877
	v6.145h-6.146c-0.526,0-0.878,0.351-0.878,0.878v1.755c0,0.526,0.352,0.878,0.878,0.878h6.146v6.146
	c0,0.525,0.352,0.878,0.878,0.878H41.1c0.527,0,0.878-0.353,0.878-0.878v-6.146h6.145c0.526,0,0.878-0.352,0.878-0.878v-1.755
	C49,29.915,48.648,29.564,48.122,29.564z"/>
</svg>
