<?xml version="1.0" encoding="utf-8"?>
<!-- Generator: Adobe Illustrator 16.0.0, SVG Export Plug-In . SVG Version: 6.00 Build 0)  -->
<!DOCTYPE svg PUBLIC "-//W3C//DTD SVG 1.1//EN" "http://www.w3.org/Graphics/SVG/1.1/DTD/svg11.dtd">
<svg version="1.1" id="Layer_1" xmlns="http://www.w3.org/2000/svg" xmlns:xlink="http://www.w3.org/1999/xlink" x="0px" y="0px"
	 width="50px" height="50px" viewBox="0 0 50 50" enable-background="new 0 0 50 50" xml:space="preserve">
<path d="M24.046,29.412v-11.75c0-0.768,0.63-1.402,1.411-1.402H46.25V9.286c0-1.939-1.563-3.536-3.473-3.536H3.93
	c-1.913,0-3.472,1.596-3.472,3.536v31.427c0,1.947,1.562,3.537,3.472,3.537H42.78c1.913,0,3.473-1.59,3.473-3.537v-9.898H25.46
	C24.676,30.818,24.046,30.189,24.046,29.412z M48.425,18.402H27.469c-0.612,0-1.115,0.442-1.115,0.998v8.288
	c0,0.547,0.5,0.998,1.115,0.998h20.956c0.617,0,1.117-0.449,1.117-0.998V19.4C49.542,18.841,49.042,18.402,48.425,18.402z
	 M31.819,26.764c-1.785,0-3.226-1.446-3.226-3.227c0-1.783,1.443-3.222,3.226-3.222c1.781,0,3.224,1.442,3.224,3.222
	C35.043,25.321,33.598,26.764,31.819,26.764z"/>
</svg>
