<?xml version="1.0" encoding="utf-8"?>
<!-- Generator: Adobe Illustrator 16.0.0, SVG Export Plug-In . SVG Version: 6.00 Build 0)  -->
<!DOCTYPE svg PUBLIC "-//W3C//DTD SVG 1.1//EN" "http://www.w3.org/Graphics/SVG/1.1/DTD/svg11.dtd">
<svg version="1.1" id="Layer_1" xmlns="http://www.w3.org/2000/svg" xmlns:xlink="http://www.w3.org/1999/xlink" x="0px" y="0px"
	 width="50px" height="50px" viewBox="0 0 50 50" enable-background="new 0 0 50 50" xml:space="preserve">
<g>
	<path d="M20.708,0.251h-2.804l-1.895,7.267L14.04,0.251h-2.921c0.584,1.714,1.195,3.439,1.779,5.156
		c0.89,2.579,1.445,4.526,1.697,5.853v7.494h2.776V11.26L20.708,0.251z M28.127,14.291V9.459c0-1.473-0.252-2.549-0.776-3.248
		c-0.694-0.94-1.668-1.414-2.92-1.414c-1.247,0-2.224,0.474-2.916,1.414c-0.531,0.698-0.784,1.774-0.784,3.248v4.832
		c0,1.466,0.252,2.552,0.784,3.244c0.692,0.94,1.669,1.412,2.916,1.412c1.252,0,2.226-0.471,2.92-1.412
		C27.875,16.843,28.127,15.757,28.127,14.291z M25.624,14.761c0,1.276-0.388,1.916-1.193,1.916c-0.809,0-1.195-0.64-1.195-1.916
		V8.959c0-1.276,0.386-1.911,1.195-1.911c0.805,0,1.193,0.635,1.193,1.911V14.761z M37.385,18.754V4.966h-2.504v10.54
		c-0.557,0.781-1.079,1.171-1.581,1.171c-0.338,0-0.533-0.2-0.589-0.587c-0.028-0.082-0.028-0.387-0.028-0.973V4.966h-2.497V15.87
		c0,0.973,0.085,1.634,0.224,2.049c0.249,0.699,0.806,1.027,1.614,1.027c0.912,0,1.86-0.554,2.857-1.696v1.503H37.385z"/>
	<g>
		<path d="M38.73,32.755c-0.831,0-1.245,0.633-1.245,1.894v1.262h2.476v-1.262C39.961,33.388,39.547,32.755,38.73,32.755z"/>
		<path d="M29.535,32.755c-0.406,0-0.819,0.196-1.232,0.602v8.319c0.413,0.411,0.826,0.605,1.232,0.605
			c0.714,0,1.076-0.605,1.076-1.839v-5.826C30.611,33.388,30.249,32.755,29.535,32.755z"/>
		<path d="M44.781,25.819c-0.5-2.173-2.28-3.78-4.43-4.019c-5.084-0.567-10.227-0.57-15.345-0.567
			c-5.123-0.003-10.265,0-15.347,0.567c-2.147,0.239-3.929,1.846-4.428,4.019c-0.717,3.099-0.725,6.478-0.725,9.672
			c0,3.188,0,6.571,0.715,9.672c0.499,2.174,2.282,3.777,4.427,4.02c5.085,0.565,10.228,0.569,15.348,0.565
			c5.121,0.004,10.264,0,15.346-0.565c2.149-0.242,3.932-1.846,4.429-4.02c0.72-3.101,0.722-6.484,0.722-9.672
			C45.493,32.297,45.496,28.918,44.781,25.819z M16.197,28.606h-2.966v15.736h-2.755V28.606H7.562v-2.58h8.635V28.606z
			 M23.681,44.343h-2.479v-1.487c-0.984,1.124-1.921,1.675-2.831,1.675c-0.799,0-1.348-0.324-1.595-1.015
			c-0.135-0.416-0.219-1.066-0.219-2.03V30.696h2.477v10.047c0,0.576,0,0.882,0.023,0.962c0.059,0.382,0.248,0.576,0.577,0.576
			c0.498,0,1.019-0.383,1.568-1.156V30.696h2.479V44.343z M33.092,40.248c0,1.262-0.087,2.172-0.251,2.75
			c-0.332,1.014-0.991,1.532-1.983,1.532c-0.878,0-1.729-0.49-2.555-1.511v1.323h-2.477V26.026h2.477v5.982
			c0.8-0.98,1.646-1.479,2.555-1.479c0.992,0,1.651,0.518,1.983,1.54c0.164,0.549,0.251,1.452,0.251,2.744V40.248z M42.44,37.971
			h-4.955v2.418c0,1.262,0.414,1.893,1.264,1.893c0.609,0,0.966-0.331,1.109-0.989c0.023-0.138,0.051-0.682,0.051-1.677h2.531v0.362
			c0,0.793-0.034,1.342-0.058,1.593c-0.082,0.544-0.277,1.044-0.575,1.479c-0.688,0.99-1.703,1.48-2.995,1.48
			c-1.302,0-2.284-0.467-2.999-1.4c-0.525-0.681-0.796-1.758-0.796-3.205v-4.779c0-1.461,0.239-2.527,0.766-3.217
			c0.714-0.935,1.702-1.399,2.966-1.399c1.242,0,2.228,0.465,2.92,1.399c0.52,0.689,0.771,1.756,0.771,3.217V37.971z"/>
	</g>
</g>
</svg>
